<svg width="14" height="12" viewBox="0 0 14 12" fill="none" xmlns="http://www.w3.org/2000/svg">
<path d="M13.7903 5.59213L6.60411 0.0657302C6.54895 0.0235954 6.47857 0 6.40439 0H4.72103C4.58027 0 4.5156 0.155056 4.62212 0.235955L11.2833 5.35955H0.152169C0.0684758 5.35955 0 5.42022 0 5.49438V6.50562C0 6.57978 0.0684758 6.64045 0.152169 6.64045H11.2814L4.62022 11.764C4.5137 11.8466 4.57837 12 4.71913 12H6.45955C6.49569 12 6.53183 11.9882 6.55846 11.9663L13.7903 6.40787C13.8561 6.35713 13.9089 6.29446 13.9451 6.2241C13.9813 6.15374 14 6.07732 14 6C14 5.92268 13.9813 5.84626 13.9451 5.7759C13.9089 5.70554 13.8561 5.64287 13.7903 5.59213Z" fill="#222933" fill-opacity="0.2"/>
</svg>
