<svg width="28" height="34" viewBox="0 0 28 34" fill="none" xmlns="http://www.w3.org/2000/svg">
<path d="M13.0483 0.509342L0.15337 17.9614C0.0550552 18.0954 -6.87741e-07 18.2663 -6.79866e-07 18.4465L-5.01167e-07 22.5346C-4.86224e-07 22.8765 0.361797 23.0335 0.550561 22.7749L12.5056 6.59771L12.5056 33.6304C12.5056 33.8337 12.6472 34 12.8202 34L15.1798 34C15.3528 34 15.4944 33.8337 15.4944 33.6304L15.4944 6.60233L27.4494 22.7795C27.6421 23.0382 28 22.8811 28 22.5393L28 18.3125C28 18.2247 27.9725 18.137 27.9213 18.0723L14.9517 0.509342C14.8333 0.349422 14.6871 0.221202 14.5229 0.133334C14.3587 0.0454667 14.1804 -6.19846e-07 14 -6.11959e-07C13.8196 -6.04073e-07 13.6413 0.0454668 13.4771 0.133335C13.3129 0.221202 13.1667 0.349422 13.0483 0.509342Z" fill="#9C394E"/>
</svg>
